<svg width="181" height="66" viewBox="0 0 181 66" fill="none" xmlns="http://www.w3.org/2000/svg">
<path fill-rule="evenodd" clip-rule="evenodd" d="M25.3712 55.7145L38.2763 65.7076V55.7145H48.9616C50.2783 55.7145 51.3502 54.6425 51.3502 53.3259V20.2909C51.3502 18.9743 50.2783 17.9023 48.9616 17.9023H38.2172V42.4971C38.2172 44.067 37.0272 45.6875 35.5754 46.101L2.64179 55.4359C2.05097 55.6047 1.50236 55.5456 1.06347 55.3093C1.44328 55.5625 1.89906 55.7145 2.38859 55.7145H25.3712V55.7145ZM3.30857 17.9023L2.64179 18.088C1.19007 18.5016 0 20.1221 0 21.692V21.3882C0 20.0715 1.07192 17.9023 2.38859 17.9023H3.30857Z" fill="#EE3A71"/>
<path fill-rule="evenodd" clip-rule="evenodd" d="M24.3415 0.313895L1.80622 17.4644C0.810272 18.224 0 20.123 0 21.6929V53.158C0 54.7279 0.810272 55.555 1.80622 54.8038L24.3415 37.6534C25.3375 36.8937 26.1478 34.9947 26.1478 33.4248V1.79937C26.1478 0.221048 25.329 -0.445723 24.3415 0.313895Z" fill="#4DB9DA"/>
<path fill-rule="evenodd" clip-rule="evenodd" d="M82.9167 39.5408C84.1321 40.9503 84.7313 42.6806 84.7313 44.7484C84.7313 46.0651 84.4781 47.2298 83.9801 48.2511C83.5159 49.3314 82.7479 50.3189 81.6844 51.2136C79.6503 52.8594 76.9494 53.6781 73.5565 53.6781C71.6321 53.6781 69.9188 53.4418 68.4248 52.9607C66.855 52.4796 65.5045 51.8972 64.3651 51.2136C63.6561 50.7916 63.2172 50.2514 63.0569 49.5762C62.8965 48.901 63.0484 48.268 63.5126 47.6687L63.8334 47.2636C64.2638 46.6981 64.9221 46.3098 65.8084 46.0988C66.6608 45.9469 67.4458 46.0819 68.1632 46.504C68.5177 46.6812 68.9144 46.8669 69.3364 47.061C69.7668 47.2551 70.231 47.4408 70.729 47.6181C71.4802 47.8882 72.4592 48.0232 73.6662 48.0232C74.3077 48.0232 74.9491 47.9472 75.5906 47.7953C76.1645 47.6181 76.6034 47.4071 76.9241 47.1707C77.2786 46.8753 77.5487 46.5715 77.7259 46.2761C77.9032 45.8287 77.996 45.3308 77.996 44.799C77.996 44.4699 77.9707 44.1323 77.9116 43.7862C77.861 43.4402 77.7091 43.1532 77.4559 42.9084C77.2786 42.7312 76.9663 42.5117 76.519 42.2585C76.0717 42.0053 75.4218 41.7437 74.5693 41.4736H74.5187L72.3833 40.7984C71.1341 40.3764 70.02 39.9291 69.041 39.448C68.0619 38.9669 67.2179 38.4183 66.5005 37.7852C64.8631 36.3757 64.0444 34.4007 64.0444 31.8602C64.0444 30.4844 64.3313 29.2691 64.8968 28.2225C65.3948 27.1759 66.1629 26.2812 67.1926 25.53C68.2223 24.8126 69.3617 24.2725 70.6108 23.918C71.7165 23.6226 72.9488 23.4707 74.2992 23.4707C76.0126 23.4707 77.6162 23.6985 79.1101 24.1459C80.5028 24.5679 81.6253 25.0321 82.4778 25.5385C83.1867 25.9014 83.6425 26.4078 83.8367 27.0662C84.0308 27.7245 83.9379 28.3491 83.5412 28.9483L83.2711 29.3535C82.8407 29.978 82.1992 30.4169 81.3468 30.6533C80.5618 30.8305 79.76 30.7292 78.9413 30.341C78.5868 30.1637 78.2239 30.0034 77.8441 29.8683C77.4727 29.7333 77.0845 29.5898 76.6962 29.4379C76.0885 29.2269 75.2867 29.1256 74.2908 29.1256C73.0416 29.1256 72.1132 29.3619 71.514 29.843C71.4464 29.9021 71.3029 30.0709 71.0835 30.3325C70.8725 30.6026 70.7628 31.109 70.7628 31.8602C70.7628 32.2231 70.7796 32.5101 70.8134 32.738C70.8472 32.9659 70.9062 33.1347 70.9738 33.2528C71.0835 33.582 71.2439 33.8183 71.4549 33.9703C71.7418 34.2066 72.0795 34.4345 72.4677 34.6455C72.7547 34.7636 73.0585 34.8818 73.3792 35.0084C73.7 35.1266 74.0545 35.2447 74.4512 35.3713H74.5018L77.1182 36.2238C79.8529 37.0847 81.7772 38.1904 82.9167 39.5408ZM105.579 49.2386C105.899 49.6606 106.06 50.1332 106.06 50.6734V50.8507C106.06 51.5681 105.756 52.1842 105.148 52.6906C104.54 53.197 103.831 53.4502 103.013 53.4502H102.422C101.35 53.4502 100.498 53.062 99.8561 52.2855L93.3909 44.031V50.8507C93.3909 51.5681 93.0871 52.1842 92.4794 52.6906C91.8717 53.197 91.1459 53.4502 90.285 53.4502H89.7532C88.9008 53.4502 88.1665 53.197 87.5588 52.6906C86.9511 52.1842 86.6472 51.5681 86.6472 50.8507V24.6354C86.6472 23.9433 86.9173 23.3609 87.4491 22.8883C87.9808 22.4072 88.6645 22.1371 89.4832 22.078L90.0149 22.0358C90.8673 21.943 91.6523 22.1709 92.3697 22.711C93.0449 23.2174 93.3825 23.8504 93.3825 24.5932V37.2535L99.2653 31.3285C99.9068 30.7039 100.692 30.3832 101.62 30.3832H102.101C102.954 30.3832 103.688 30.6364 104.296 31.1428C104.903 31.6492 105.207 32.2653 105.207 32.9828V33.16C105.207 33.8521 104.979 34.4007 104.515 34.8227L98.7421 40.6127L105.579 49.2386ZM109.807 51.0279C108.415 49.5931 107.722 47.483 107.722 44.6977V32.7549C107.722 32.0374 108.026 31.4213 108.634 30.9149C109.242 30.4085 109.968 30.1553 110.828 30.1553H111.36C112.213 30.1553 112.947 30.4085 113.555 30.9149C114.162 31.4213 114.466 32.0374 114.466 32.7549V45.0522C114.466 46.0397 114.77 46.7572 115.378 47.2045C115.985 47.6518 116.669 47.8881 117.437 47.8966C118.205 47.9135 118.931 47.7447 119.632 47.3986C120.324 47.0526 120.746 46.5799 120.889 45.9891V32.7464C120.889 32.029 121.193 31.4129 121.801 30.9065C122.408 30.4 123.134 30.1468 123.995 30.1468H124.586C125.438 30.1468 126.173 30.4 126.78 30.9065C127.388 31.4129 127.675 32.029 127.633 32.7464C127.633 34.7552 127.624 36.5023 127.608 37.9962C127.591 39.4902 127.582 40.7899 127.582 41.8787C127.582 42.9675 127.582 43.8875 127.582 44.6134C127.582 45.3477 127.582 45.9384 127.582 46.3858C127.582 47.4661 127.565 47.9979 127.532 47.9979V50.6903C127.532 51.4077 127.228 52.0239 126.62 52.5303C126.012 53.0367 125.286 53.2899 124.426 53.2899H123.944C123.016 53.2899 122.273 53.0029 121.699 52.4374C121.59 52.4965 121.429 52.5556 121.218 52.6147L121.168 52.6569C121.134 52.6906 121.041 52.7328 120.898 52.7919C119.682 53.2139 118.349 53.4165 116.888 53.4165C113.656 53.4502 111.301 52.6484 109.807 51.0279ZM133.853 22.0358C134.706 22.0358 135.44 22.2806 136.048 22.7785C136.655 23.2765 136.959 23.8758 136.959 24.5932V50.8507C136.959 51.5681 136.655 52.1842 136.048 52.6906C135.44 53.197 134.714 53.4502 133.853 53.4502H133.322C132.469 53.4502 131.735 53.197 131.127 52.6906C130.519 52.1842 130.216 51.5681 130.216 50.8507V24.5932C130.216 23.8758 130.519 23.2681 131.127 22.7785C131.735 22.289 132.461 22.0358 133.322 22.0358H133.853V22.0358ZM144.007 53.5853C142.867 53.5853 141.956 53.273 141.281 52.64C141.027 52.429 140.8 52.142 140.589 51.7622C140.378 51.3908 140.268 50.935 140.268 50.3949C140.268 49.8547 140.369 49.4074 140.563 49.0445C140.757 48.6815 140.96 48.403 141.179 48.192C141.931 47.4999 142.867 47.1623 144.015 47.1623C145.155 47.1623 146.083 47.4577 146.792 48.0569C147.543 48.6815 147.915 49.4665 147.915 50.3949C147.915 51.3486 147.526 52.1336 146.741 52.7328C146.455 52.9438 146.1 53.138 145.67 53.3152C145.239 53.5009 144.691 53.5853 144.007 53.5853ZM153.848 30.3832C154.701 30.3832 155.435 30.6364 156.043 31.1428C156.65 31.6492 156.954 32.2653 156.954 32.9828V50.8507C156.954 51.5681 156.65 52.1842 156.043 52.6906C155.435 53.197 154.709 53.4502 153.848 53.4502H153.316C152.464 53.4502 151.73 53.197 151.122 52.6906C150.514 52.1842 150.21 51.5681 150.21 50.8507V32.9828C150.21 32.2653 150.514 31.6492 151.122 31.1428C151.73 30.6364 152.455 30.3832 153.316 30.3832H153.848ZM153.578 29.0834C152.548 29.0834 151.679 28.788 150.987 28.1887C150.295 27.5895 149.949 26.8383 149.949 25.9436C149.949 25.049 150.295 24.2978 150.987 23.6985C151.679 23.0993 152.548 22.8039 153.578 22.8039C154.608 22.8039 155.477 23.0993 156.169 23.6985C156.861 24.2978 157.207 25.049 157.207 25.9436C157.207 26.8383 156.861 27.5895 156.169 28.1887C155.477 28.7795 154.608 29.0834 153.578 29.0834ZM160.794 37.0256C161.259 35.557 161.968 34.2994 162.93 33.2528C163.959 32.1725 165.226 31.3791 166.728 30.8727C168.154 30.3916 169.648 30.1553 171.218 30.1553C171.75 30.1553 172.273 30.1891 172.771 30.2481C173.269 30.3072 173.767 30.3832 174.265 30.476V24.5932C174.265 23.842 174.603 23.2174 175.278 22.711C175.919 22.1709 176.704 21.9514 177.633 22.0358L178.164 22.078C178.983 22.1371 179.658 22.4072 180.198 22.8883C180.73 23.3694 181 23.9517 181 24.6354V50.9857C181 51.7031 180.696 52.3192 180.089 52.8257C179.481 53.3321 178.755 53.5853 177.894 53.5853H177.413C176.881 53.5853 176.459 53.5093 176.156 53.3574C175.852 53.2055 175.666 53.1042 175.599 53.0451C175.531 53.0789 175.388 53.1126 175.168 53.1548C174.957 53.197 174.738 53.2477 174.527 53.2899C174.316 53.3321 174.113 53.3827 173.936 53.4249C173.759 53.4671 173.666 53.4924 173.666 53.4924C172.847 53.6444 172.028 53.7203 171.21 53.7203C169.64 53.7203 168.146 53.484 166.719 53.0029C165.226 52.4965 163.959 51.7031 162.921 50.6228C161.959 49.5762 161.25 48.3186 160.786 46.85C160.356 45.4743 160.145 43.8453 160.145 41.9547C160.153 40.081 160.364 38.4351 160.794 37.0256ZM168.112 47.0357C168.146 47.0948 168.23 47.1876 168.348 47.3058C168.475 47.4239 168.652 47.5421 168.88 47.6687C169.108 47.7869 169.412 47.8882 169.792 47.9641C170.163 48.0401 170.636 48.0738 171.21 48.0738C172.282 48.0738 173.016 47.9472 173.429 47.694C173.843 47.4408 174.113 47.2383 174.257 47.0863V36.7977C174.113 36.6458 173.835 36.4432 173.429 36.19C173.016 35.9368 172.282 35.8102 171.21 35.8102C170.07 35.8102 169.294 35.9537 168.889 36.2407C168.475 36.5276 168.222 36.7302 168.112 36.8484C167.825 37.1775 167.555 37.7346 167.285 38.5111C167.015 39.2876 166.888 40.4439 166.888 41.9631C166.888 43.4908 167.023 44.6302 167.285 45.3983C167.555 46.1579 167.834 46.7065 168.112 47.0357Z" fill="url(#paint0_linear)"/>
<defs>
<linearGradient id="paint0_linear" x1="63.0024" y1="37.8695" x2="180.996" y2="37.8695" gradientUnits="userSpaceOnUse">
<stop stop-color="#E61A62"/>
<stop offset="1" stop-color="#4CB8DD"/>
</linearGradient>
</defs>
</svg>
