<svg width="129" height="47" viewBox="0 0 129 47" fill="none" xmlns="http://www.w3.org/2000/svg">
<path fill-rule="evenodd" clip-rule="evenodd" d="M18.0824 39.8512L27.2799 46.9992V39.8512H34.8955C35.8339 39.8512 36.5978 39.0844 36.5978 38.1426V14.5132C36.5978 13.5714 35.8339 12.8047 34.8955 12.8047H27.2378V30.397C27.2378 31.5199 26.3896 32.679 25.355 32.9748L1.88283 39.6519C1.46175 39.7727 1.07075 39.7304 0.757949 39.5614C1.02864 39.7425 1.35348 39.8512 1.70237 39.8512H18.0824V39.8512ZM2.35805 12.8047L1.88283 12.9375C0.848177 13.2333 0 14.3925 0 15.5154V15.298C0 14.3562 0.763969 12.8047 1.70237 12.8047H2.35805Z" fill="white"/>
<path fill-rule="evenodd" clip-rule="evenodd" d="M17.3485 0.224525L1.28731 12.492C0.577489 13.0354 0 14.3938 0 15.5167V38.0232C0 39.1461 0.577489 39.7378 1.28731 39.2004L17.3485 26.9329C18.0583 26.3896 18.6358 25.0312 18.6358 23.9083V1.28706C18.6358 0.158113 18.0523 -0.31882 17.3485 0.224525Z" fill="white"/>
<path fill-rule="evenodd" clip-rule="evenodd" d="M59.0948 28.2816C59.961 29.2898 60.3881 30.5274 60.3881 32.0066C60.3881 32.9484 60.2076 33.7815 59.8527 34.512C59.5219 35.2847 58.9745 35.9911 58.2165 36.631C56.7668 37.8083 54.8419 38.3939 52.4237 38.3939C51.0522 38.3939 49.831 38.2248 48.7663 37.8807C47.6474 37.5366 46.685 37.12 45.8729 36.631C45.3676 36.3291 45.0548 35.9428 44.9405 35.4598C44.8262 34.9768 44.9345 34.524 45.2653 34.0954L45.4939 33.8056C45.8007 33.4011 46.2699 33.1234 46.9015 32.9725C47.5091 32.8638 48.0685 32.9604 48.5798 33.2623C48.8325 33.3891 49.1152 33.5219 49.416 33.6607C49.7227 33.7996 50.0536 33.9324 50.4085 34.0592C50.9439 34.2524 51.6417 34.349 52.5019 34.349C52.959 34.349 53.4162 34.2946 53.8734 34.186C54.2824 34.0592 54.5953 33.9083 54.8238 33.7392C55.0765 33.5279 55.269 33.3106 55.3953 33.0993C55.5216 32.7793 55.5878 32.4231 55.5878 32.0428C55.5878 31.8073 55.5697 31.5658 55.5276 31.3183C55.4915 31.0708 55.3833 30.8655 55.2028 30.6904C55.0765 30.5637 54.8539 30.4067 54.5351 30.2256C54.2163 30.0445 53.7531 29.8573 53.1455 29.6641H53.1094L51.5875 29.1811C50.6973 28.8793 49.9032 28.5593 49.2054 28.2152C48.5076 27.8711 47.9061 27.4787 47.3948 27.0259C46.2278 26.0177 45.6443 24.605 45.6443 22.7878C45.6443 21.8037 45.8488 20.9344 46.2519 20.1858C46.6068 19.4372 47.1542 18.7972 47.8881 18.2599C48.6219 17.7468 49.434 17.3604 50.3243 17.1068C51.1123 16.8955 51.9906 16.7869 52.953 16.7869C54.1742 16.7869 55.3171 16.9499 56.3818 17.2698C57.3744 17.5717 58.1744 17.9037 58.782 18.266C59.2873 18.5256 59.6121 18.8878 59.7505 19.3587C59.8888 19.8296 59.8227 20.2763 59.5399 20.705L59.3474 20.9948C59.0406 21.4415 58.5835 21.7554 57.9759 21.9245C57.4165 22.0513 56.845 21.9788 56.2615 21.7011C56.0089 21.5743 55.7502 21.4596 55.4795 21.363C55.2148 21.2664 54.9381 21.1638 54.6614 21.0551C54.2283 20.9042 53.6568 20.8318 52.947 20.8318C52.0567 20.8318 51.395 21.0008 50.968 21.3449C50.9198 21.3872 50.8176 21.5079 50.6612 21.6951C50.5108 21.8883 50.4326 22.2505 50.4326 22.7878C50.4326 23.0474 50.4446 23.2527 50.4687 23.4157C50.4927 23.5787 50.5348 23.6994 50.583 23.7839C50.6612 24.0194 50.7755 24.1884 50.9258 24.2971C51.1304 24.4661 51.371 24.6291 51.6477 24.7801C51.8522 24.8646 52.0688 24.9491 52.2974 25.0397C52.5259 25.1242 52.7786 25.2087 53.0613 25.2993H53.0974L54.9622 25.909C56.9112 26.5248 58.2827 27.3157 59.0948 28.2816ZM75.2462 35.2183C75.4748 35.5202 75.5891 35.8583 75.5891 36.2446V36.3714C75.5891 36.8846 75.3725 37.3253 74.9394 37.6875C74.5063 38.0497 74.001 38.2309 73.4175 38.2309H72.9964C72.2325 38.2309 71.6249 37.9532 71.1677 37.3977L66.5599 31.4934V36.3714C66.5599 36.8846 66.3434 37.3253 65.9103 37.6875C65.4771 38.0497 64.9598 38.2309 64.3462 38.2309H63.9673C63.3597 38.2309 62.8364 38.0497 62.4033 37.6875C61.9702 37.3253 61.7536 36.8846 61.7536 36.3714V17.62C61.7536 17.1249 61.9461 16.7084 62.3251 16.3703C62.704 16.0262 63.1913 15.833 63.7748 15.7907L64.1537 15.7605C64.7613 15.6941 65.3207 15.8571 65.8321 16.2435C66.3133 16.6057 66.5539 17.0585 66.5539 17.5898V26.6455L70.7467 22.4074C71.2038 21.9607 71.7633 21.7313 72.4249 21.7313H72.7678C73.3754 21.7313 73.8987 21.9124 74.3318 22.2746C74.765 22.6369 74.9815 23.0776 74.9815 23.5907V23.7175C74.9815 24.2126 74.8191 24.605 74.4883 24.9068L70.3737 29.0483L75.2462 35.2183ZM78.2599 36.4982C77.2674 35.4719 76.7741 33.9626 76.7741 31.9703V23.4277C76.7741 22.9146 76.9907 22.4739 77.4238 22.1116C77.8569 21.7494 78.3742 21.5683 78.9878 21.5683H79.3667C79.9743 21.5683 80.4977 21.7494 80.9308 22.1116C81.3639 22.4739 81.5804 22.9146 81.5804 23.4277V32.2239C81.5804 32.9302 81.797 33.4434 82.2301 33.7634C82.6632 34.0833 83.1505 34.2524 83.6979 34.2584C84.2453 34.2705 84.7626 34.1497 85.2619 33.9022C85.7551 33.6547 86.0559 33.3166 86.1582 32.894V23.4217C86.1582 22.9085 86.3747 22.4678 86.8078 22.1056C87.2409 21.7434 87.7583 21.5622 88.3718 21.5622H88.7929C89.4005 21.5622 89.9238 21.7434 90.3569 22.1056C90.79 22.4678 90.9946 22.9085 90.9645 23.4217C90.9645 24.8585 90.9585 26.1082 90.9464 27.1768C90.9344 28.2454 90.9284 29.1751 90.9284 29.9539C90.9284 30.7327 90.9284 31.3908 90.9284 31.91C90.9284 32.4352 90.9284 32.8578 90.9284 33.1777C90.9284 33.9505 90.9164 34.3308 90.8923 34.3308V36.2567C90.8923 36.7699 90.6758 37.2106 90.2426 37.5728C89.8095 37.9351 89.2922 38.1162 88.6786 38.1162H88.3357C87.674 38.1162 87.1447 37.9109 86.7356 37.5064C86.6574 37.5487 86.5431 37.5909 86.3928 37.6332L86.3567 37.6634C86.3326 37.6875 86.2664 37.7177 86.1642 37.76C85.298 38.0618 84.3475 38.2067 83.3069 38.2067C81.003 38.2309 79.3246 37.6573 78.2599 36.4982ZM95.3978 15.7605C96.0054 15.7605 96.5287 15.9356 96.9619 16.2918C97.395 16.648 97.6115 17.0766 97.6115 17.5898V36.3714C97.6115 36.8846 97.395 37.3253 96.9619 37.6875C96.5287 38.0497 96.0114 38.2309 95.3978 38.2309H95.0189C94.4113 38.2309 93.888 38.0497 93.4549 37.6875C93.0218 37.3253 92.8052 36.8846 92.8052 36.3714V17.5898C92.8052 17.0766 93.0218 16.642 93.4549 16.2918C93.888 15.9416 94.4053 15.7605 95.0189 15.7605H95.3978V15.7605ZM102.634 38.3275C101.822 38.3275 101.173 38.1041 100.691 37.6513C100.511 37.5004 100.349 37.2951 100.198 37.0234C100.048 36.7578 99.9696 36.4318 99.9696 36.0454C99.9696 35.659 100.042 35.3391 100.18 35.0795C100.318 34.8199 100.463 34.6206 100.619 34.4697C101.155 33.9747 101.822 33.7332 102.64 33.7332C103.453 33.7332 104.114 33.9445 104.619 34.3731C105.155 34.8199 105.42 35.3813 105.42 36.0454C105.42 36.7276 105.143 37.2891 104.583 37.7177C104.379 37.8686 104.126 38.0075 103.819 38.1343C103.513 38.2671 103.122 38.3275 102.634 38.3275ZM109.648 21.7313C110.256 21.7313 110.779 21.9124 111.212 22.2746C111.646 22.6369 111.862 23.0776 111.862 23.5907V36.3714C111.862 36.8846 111.646 37.3253 111.212 37.6875C110.779 38.0497 110.262 38.2309 109.648 38.2309H109.269C108.662 38.2309 108.139 38.0497 107.705 37.6875C107.272 37.3253 107.056 36.8846 107.056 36.3714V23.5907C107.056 23.0776 107.272 22.6369 107.705 22.2746C108.139 21.9124 108.656 21.7313 109.269 21.7313H109.648ZM109.456 20.8016C108.722 20.8016 108.102 20.5903 107.609 20.1616C107.116 19.733 106.869 19.1957 106.869 18.5557C106.869 17.9158 107.116 17.3785 107.609 16.9499C108.102 16.5212 108.722 16.3099 109.456 16.3099C110.19 16.3099 110.809 16.5212 111.303 16.9499C111.796 17.3785 112.043 17.9158 112.043 18.5557C112.043 19.1957 111.796 19.733 111.303 20.1616C110.809 20.5842 110.19 20.8016 109.456 20.8016ZM114.599 26.4825C114.93 25.4321 115.435 24.5325 116.121 23.7839C116.855 23.0112 117.757 22.4437 118.828 22.0815C119.845 21.7373 120.909 21.5683 122.028 21.5683C122.407 21.5683 122.78 21.5924 123.135 21.6347C123.49 21.677 123.845 21.7313 124.2 21.7977V17.5898C124.2 17.0525 124.44 16.6057 124.922 16.2435C125.379 15.8571 125.938 15.7002 126.6 15.7605L126.979 15.7907C127.562 15.833 128.044 16.0262 128.429 16.3703C128.808 16.7144 129 17.131 129 17.62V36.468C129 36.9812 128.783 37.4219 128.35 37.7841C127.917 38.1463 127.4 38.3275 126.786 38.3275H126.443C126.064 38.3275 125.764 38.2731 125.547 38.1645C125.331 38.0558 125.198 37.9833 125.15 37.9411C125.102 37.9652 125 37.9894 124.843 38.0196C124.693 38.0498 124.537 38.086 124.386 38.1162C124.236 38.1463 124.091 38.1826 123.965 38.2128C123.839 38.2429 123.773 38.261 123.773 38.261C123.189 38.3697 122.606 38.424 122.022 38.424C120.903 38.424 119.839 38.255 118.822 37.9109C117.757 37.5487 116.855 36.9812 116.115 36.2084C115.429 35.4598 114.924 34.5603 114.593 33.5098C114.286 32.5257 114.136 31.3606 114.136 30.0082C114.142 28.668 114.292 27.4907 114.599 26.4825ZM119.814 33.6426C119.839 33.6849 119.899 33.7513 119.983 33.8358C120.073 33.9203 120.199 34.0049 120.362 34.0954C120.524 34.1799 120.741 34.2524 121.012 34.3067C121.276 34.361 121.613 34.3852 122.022 34.3852C122.786 34.3852 123.309 34.2946 123.604 34.1135C123.899 33.9324 124.091 33.7875 124.194 33.6788V26.3195C124.091 26.2109 123.893 26.066 123.604 25.8849C123.309 25.7037 122.786 25.6132 122.022 25.6132C121.21 25.6132 120.657 25.7158 120.368 25.9211C120.073 26.1263 119.893 26.2712 119.814 26.3558C119.61 26.5912 119.417 26.9897 119.225 27.5451C119.032 28.1005 118.942 28.9276 118.942 30.0143C118.942 31.107 119.038 31.922 119.225 32.4714C119.417 33.0148 119.616 33.4072 119.814 33.6426Z" fill="white"/>
</svg>
